<svg width="30" height="30" viewBox="0 0 30 30" fill="none" xmlns="http://www.w3.org/2000/svg">
<path d="M30 6.82124V24.2075C30 25.3375 29.085 26.2525 27.955 26.2525H23.1812V14.6625L15 20.8L6.81875 14.6625V26.2537H2.045C1.77634 26.2537 1.51032 26.2008 1.26212 26.098C1.01393 25.9951 0.788437 25.8444 0.598525 25.6543C0.408613 25.4643 0.258005 25.2387 0.155308 24.9905C0.0526105 24.7422 -0.000163835 24.4761 3.82064e-07 24.2075V6.82124C3.82064e-07 4.29249 2.88625 2.84874 4.90875 4.36624L6.81875 5.79999L15 11.935L23.1812 5.79749L25.0912 4.36624C27.1125 2.84999 30 4.29249 30 6.82124Z" fill="white" fill-opacity="0.86"/>
</svg>
