<svg width="32" height="32" viewBox="0 0 32 32" fill="none" xmlns="http://www.w3.org/2000/svg">
<path d="M27.2932 2.66669H4.70658C4.45269 2.66316 4.20058 2.70969 3.96467 2.8036C3.72876 2.89752 3.51365 3.03698 3.33165 3.21404C3.14964 3.39109 3.00429 3.60227 2.9039 3.8355C2.80352 4.06874 2.75006 4.31946 2.74658 4.57336V27.4267C2.75006 27.6806 2.80352 27.9313 2.9039 28.1645C3.00429 28.3978 3.14964 28.6089 3.33165 28.786C3.51365 28.9631 3.72876 29.1025 3.96467 29.1964C4.20058 29.2904 4.45269 29.3369 4.70658 29.3334H27.2932C27.5471 29.3369 27.7992 29.2904 28.0352 29.1964C28.2711 29.1025 28.4862 28.9631 28.6682 28.786C28.8502 28.6089 28.9955 28.3978 29.0959 28.1645C29.1963 27.9313 29.2498 27.6806 29.2533 27.4267V4.57336C29.2498 4.31946 29.1963 4.06874 29.0959 3.8355C28.9955 3.60227 28.8502 3.39109 28.6682 3.21404C28.4862 3.03698 28.2711 2.89752 28.0352 2.8036C27.7992 2.70969 27.5471 2.66316 27.2932 2.66669ZM10.7866 24.9867H6.78658V12.9867H10.7866V24.9867ZM8.78658 11.3067C8.23493 11.3067 7.70588 11.0875 7.3158 10.6975C6.92572 10.3074 6.70658 9.77834 6.70658 9.22669C6.70658 8.67504 6.92572 8.14598 7.3158 7.75591C7.70588 7.36583 8.23493 7.14669 8.78658 7.14669C9.07951 7.11347 9.37615 7.1425 9.65708 7.23187C9.93801 7.32124 10.1969 7.46894 10.4168 7.66531C10.6367 7.86167 10.8126 8.10226 10.9331 8.37133C11.0535 8.6404 11.1158 8.93188 11.1158 9.22669C11.1158 9.52149 11.0535 9.81298 10.9331 10.082C10.8126 10.3511 10.6367 10.5917 10.4168 10.7881C10.1969 10.9844 9.93801 11.1321 9.65708 11.2215C9.37615 11.3109 9.07951 11.3399 8.78658 11.3067ZM25.2132 24.9867H21.2132V18.5467C21.2132 16.9334 20.6399 15.88 19.1866 15.88C18.7368 15.8833 18.2988 16.0244 17.9317 16.2843C17.5646 16.5441 17.2859 16.9103 17.1333 17.3334C17.0289 17.6467 16.9837 17.9768 16.9999 18.3067V24.9734H12.9999V12.9734H16.9999V14.6667C17.3633 14.0362 17.8918 13.5167 18.5285 13.1643C19.1652 12.8119 19.886 12.6398 20.6132 12.6667C23.2799 12.6667 25.2132 14.3867 25.2132 18.08V24.9867Z" fill="white" fill-opacity="0.86"/>
</svg>
