<svg width="16" height="22" viewBox="0 0 16 22" fill="none" xmlns="http://www.w3.org/2000/svg">
<path fill-rule="evenodd" clip-rule="evenodd" d="M10 0C10.5304 0 11.0391 0.210714 11.4142 0.585786C11.7893 0.960859 12 1.46957 12 2C12.0005 2.69111 12.2393 3.36091 12.6761 3.89647C13.113 4.43202 13.7211 4.80058 14.398 4.94C14.9178 5.04556 15.3744 5.35329 15.6674 5.7955C15.9603 6.23771 16.0656 6.77818 15.96 7.298C15.8544 7.81782 15.5467 8.27443 15.1045 8.56736C14.6623 8.86029 14.1218 8.96556 13.602 8.86C13.0484 8.74698 12.5105 8.56734 12 8.325V14C12 15.1222 11.6852 16.222 11.0914 17.1743C10.4976 18.1265 9.64872 18.8932 8.64105 19.3872C7.63338 19.8812 6.50737 20.0827 5.39093 19.9687C4.27449 19.8548 3.21238 19.4301 2.32525 18.7428C1.43812 18.0554 0.761536 17.1331 0.372353 16.0805C-0.0168312 15.0279 -0.103011 13.8873 0.123603 12.7881C0.350217 11.689 0.88054 10.6755 1.65433 9.86269C2.42812 9.04988 3.41435 8.47037 4.501 8.19C5.01142 8.0669 5.54977 8.14946 5.99984 8.41985C6.44991 8.69023 6.77561 9.12676 6.90663 9.6352C7.03764 10.1436 6.96346 10.6832 6.70011 11.1374C6.43675 11.5917 6.00534 11.9241 5.499 12.063C5.03018 12.1874 4.62246 12.4778 4.35162 12.8802C4.08078 13.2826 3.96523 13.7696 4.02646 14.2508C4.0877 14.7319 4.32153 15.1745 4.68452 15.4962C5.04751 15.818 5.51496 15.997 6 16C6.53043 16 7.03914 15.7893 7.41421 15.4142C7.78929 15.0391 8 14.5304 8 14V2C8 1.46957 8.21072 0.960859 8.58579 0.585786C8.96086 0.210714 9.46957 0 10 0Z" fill="white"/>
</svg>
