<svg width="10" height="10" viewBox="0 0 10 10" fill="none" xmlns="http://www.w3.org/2000/svg">
<path d="M7.91667 1.66659H7.08334V1.24992C7.08334 1.13941 7.03944 1.03343 6.9613 0.955291C6.88316 0.877151 6.77718 0.833252 6.66667 0.833252C6.55616 0.833252 6.45018 0.877151 6.37204 0.955291C6.2939 1.03343 6.25 1.13941 6.25 1.24992V1.66659H3.75V1.24992C3.75 1.13941 3.7061 1.03343 3.62796 0.955291C3.54982 0.877151 3.44384 0.833252 3.33334 0.833252C3.22283 0.833252 3.11685 0.877151 3.03871 0.955291C2.96057 1.03343 2.91667 1.13941 2.91667 1.24992V1.66659H2.08334C1.75182 1.66659 1.43387 1.79828 1.19945 2.0327C0.965032 2.26712 0.833336 2.58506 0.833336 2.91659V7.91659C0.833336 8.24811 0.965032 8.56605 1.19945 8.80047C1.43387 9.03489 1.75182 9.16659 2.08334 9.16659H7.91667C8.24819 9.16659 8.56613 9.03489 8.80055 8.80047C9.03497 8.56605 9.16667 8.24811 9.16667 7.91659V2.91659C9.16667 2.58506 9.03497 2.26712 8.80055 2.0327C8.56613 1.79828 8.24819 1.66659 7.91667 1.66659ZM8.33334 7.91659C8.33334 8.02709 8.28944 8.13307 8.2113 8.21121C8.13316 8.28935 8.02718 8.33325 7.91667 8.33325H2.08334C1.97283 8.33325 1.86685 8.28935 1.78871 8.21121C1.71057 8.13307 1.66667 8.02709 1.66667 7.91659V4.99992H8.33334V7.91659ZM8.33334 4.16659H1.66667V2.91659C1.66667 2.80608 1.71057 2.7001 1.78871 2.62196C1.86685 2.54382 1.97283 2.49992 2.08334 2.49992H2.91667V2.91659C2.91667 3.02709 2.96057 3.13307 3.03871 3.21121C3.11685 3.28935 3.22283 3.33325 3.33334 3.33325C3.44384 3.33325 3.54982 3.28935 3.62796 3.21121C3.7061 3.13307 3.75 3.02709 3.75 2.91659V2.49992H6.25V2.91659C6.25 3.02709 6.2939 3.13307 6.37204 3.21121C6.45018 3.28935 6.55616 3.33325 6.66667 3.33325C6.77718 3.33325 6.88316 3.28935 6.9613 3.21121C7.03944 3.13307 7.08334 3.02709 7.08334 2.91659V2.49992H7.91667C8.02718 2.49992 8.13316 2.54382 8.2113 2.62196C8.28944 2.7001 8.33334 2.80608 8.33334 2.91659V4.16659Z" fill="black" fill-opacity="0.47"/>
</svg>
