<svg width="734" height="273" viewBox="0 0 734 273" fill="none" xmlns="http://www.w3.org/2000/svg">
<path d="M-114.88 268.856L-116 10.558L64.0708 9.77763L64.3027 63.2821L-54.8832 63.7987L-54.2276 215.087L68.6482 214.555L68.8801 268.059L-114.88 268.856ZM-85.8194 162.826L-86.0401 111.904L47.9057 111.324L48.1264 162.245L-85.8194 162.826ZM208.5 271.144C191.526 271.218 176.143 269.316 162.35 265.44C148.802 261.317 136.722 255.465 126.112 247.885C115.499 240.059 105.989 230.875 97.5788 220.333L135.398 176.996C147.77 193.425 160.118 204.441 172.442 210.046C185.012 215.649 197.94 218.422 211.223 218.365C217.865 218.336 223.889 217.449 229.293 215.704C234.698 213.958 238.869 211.48 241.807 208.269C244.744 204.813 246.202 200.624 246.181 195.704C246.165 192.014 245.166 188.698 243.185 185.754C241.451 182.81 238.979 180.237 235.772 178.037C232.564 175.837 228.743 173.886 224.307 172.183C219.871 170.234 215.19 168.655 210.265 167.447C205.338 165.992 200.29 164.784 195.12 163.822C180.838 160.686 168.398 156.804 157.8 152.176C147.202 147.548 138.321 141.928 131.159 135.317C124.241 128.459 119.041 120.732 115.56 112.137C112.078 103.296 110.313 93.464 110.266 82.6401C110.216 71.0782 112.753 60.4891 117.878 50.8729C123.247 41.0095 130.345 32.6147 139.171 25.6883C148.242 18.5149 158.673 13.0577 170.465 9.31656C182.256 5.32943 194.547 3.30815 207.339 3.25271C224.313 3.17915 238.835 4.96124 250.905 8.59896C263.22 11.9896 273.696 16.9873 282.335 23.5919C291.22 30.1955 298.757 38.1579 304.948 47.4791L266.365 84.9157C261.171 78.5421 255.49 73.2777 249.322 69.1224C243.4 64.966 236.99 61.7958 230.093 59.6116C223.441 57.4264 216.548 56.3493 209.414 56.3802C202.034 56.4122 195.643 57.4239 190.239 59.4153C185.081 61.1597 181.033 63.7603 178.096 67.217C175.158 70.4278 173.699 74.3702 173.719 79.0441C173.737 83.2261 174.983 86.7877 177.456 89.729C179.928 92.6703 183.261 95.3619 187.454 97.8038C191.645 99.9996 196.451 101.947 201.87 103.645C207.288 105.098 212.952 106.303 218.86 107.262C232.402 109.909 244.594 113.423 255.437 117.804C266.526 122.184 276.02 127.555 283.92 133.917C292.066 140.278 298.249 147.877 302.469 156.715C306.934 165.306 309.192 175.382 309.242 186.944C309.32 204.902 304.958 220.173 296.157 232.757C287.6 245.094 275.71 254.617 260.487 261.325C245.509 267.786 228.18 271.059 208.5 271.144ZM474.027 269.993C454.593 270.078 436.621 266.958 420.112 260.633C403.847 254.061 389.662 244.898 377.557 233.142C365.451 221.141 356.042 207.036 349.33 190.829C342.862 174.375 339.586 156.308 339.501 136.628C339.418 117.44 342.785 99.7136 349.602 83.448C356.42 67.1823 365.83 53.1193 377.833 41.2592C390.081 29.152 404.431 19.7417 420.884 13.0284C437.583 6.31395 455.772 2.91409 475.452 2.8288C487.752 2.7755 499.813 4.32225 511.635 7.46905C523.456 10.6159 534.424 15.3654 544.538 21.7176C554.896 27.8228 563.784 35.1643 571.201 43.7422L533.016 87.8192C527.827 82.4296 522.271 77.7796 516.35 73.8692C510.674 69.7118 504.388 66.541 497.49 64.3569C490.593 62.1727 483.208 61.0977 475.336 61.1318C465.496 61.1745 456.156 63.06 447.316 66.7883C438.721 70.2696 431.117 75.3456 424.504 82.0164C418.136 88.44 413.127 96.3338 409.477 105.698C405.828 115.062 404.028 125.524 404.078 137.086C404.127 148.402 406.017 158.726 409.748 168.058C413.477 177.144 418.677 184.994 425.348 191.607C432.019 198.22 440.035 203.228 449.398 206.632C459.007 210.034 469.592 211.71 481.154 211.66C489.026 211.626 496.524 210.486 503.649 208.242C510.773 205.997 517.279 203.016 523.167 199.301C529.3 195.338 534.693 190.887 539.345 185.947L569.811 233.785C563.691 240.7 555.477 246.885 545.168 252.342C535.106 257.798 523.808 262.152 511.276 265.404C498.989 268.409 486.573 269.939 474.027 269.993ZM730.162 268.884C710.728 268.968 692.756 265.848 676.247 259.523C659.982 252.951 645.797 243.788 633.692 232.032C621.586 220.031 612.177 205.926 605.465 189.719C598.997 173.265 595.721 155.198 595.636 135.518C595.552 116.33 598.92 98.6037 605.737 82.338C612.555 66.0723 621.965 52.0093 633.968 40.1492C646.215 28.042 660.566 18.6317 677.019 11.9184C693.718 5.20395 711.907 1.80409 731.587 1.71881C743.887 1.6655 755.948 3.21225 767.769 6.35905C779.591 9.50585 790.559 14.2554 800.673 20.6076C811.031 26.7128 819.919 34.0543 827.336 42.6322L789.151 86.7092C783.961 81.3196 778.406 76.6696 772.485 72.7592C766.809 68.6018 760.522 65.431 753.625 63.2469C746.727 61.0627 739.343 59.9877 731.471 60.0219C721.631 60.0645 712.291 61.95 703.451 65.6783C694.856 69.1596 687.252 74.2356 680.639 80.9064C674.27 87.33 669.262 95.2238 665.612 104.588C661.963 113.952 660.163 124.414 660.213 135.976C660.262 147.292 662.152 157.616 665.882 166.948C669.612 176.034 674.812 183.884 681.483 190.497C688.153 197.11 696.17 202.118 705.533 205.522C715.142 208.924 725.727 210.6 737.289 210.55C745.161 210.516 752.659 209.376 759.783 207.132C766.908 204.887 773.414 201.906 779.302 198.191C785.435 194.228 790.828 189.777 795.48 184.837L825.946 232.675C819.826 239.59 811.611 245.775 801.303 251.232C791.241 256.688 779.943 261.042 767.411 264.294C755.124 267.299 742.708 268.829 730.162 268.884Z" fill="#00C9FF" fill-opacity="0.1"/>
</svg>
