<svg width="34" height="47" viewBox="0 0 34 47" fill="none" xmlns="http://www.w3.org/2000/svg">
<path d="M0.96994 18.5087L16.3793 10.799C17.6684 10.394 18.9301 10.4021 20.1669 10.799C20.9145 10.9328 21.8996 11.8241 22.7089 12.7005C23.0961 13.0677 23.3901 13.887 23.6947 14.6538C23.7598 15.2255 23.7545 15.8087 23.6947 16.4013L23.435 17.8407L23.072 19.0232L21.966 22.3131L13.6292 21.8503L15.2895 18.1495L3.3563 23.4437C2.19064 23.7007 0.912899 23.2426 0.347178 22.2613C-0.218543 21.2806 -0.147408 19.4402 0.96994 18.5093V18.5087Z" fill="url(#paint0_linear_36_235)"/>
<path d="M13.6966 21.8693L22.0187 22.5467L23.0575 19.0571C23.1676 18.034 22.8716 17.2107 22.0187 16.6611C21.3536 16.2858 20.6745 16.0248 19.9544 16.0881C18.527 16.2677 16.7634 17.2389 15.2736 18.1712L13.6959 21.8693H13.6966Z" fill="#00C9FF"/>
<path d="M16.4337 31.3389C17.3007 29.6746 16.6574 27.6211 14.997 26.7521C13.3365 25.8831 11.2877 26.5279 10.4207 28.1922L3.8609 40.785C2.99394 42.4493 3.6372 44.5029 5.29765 45.3718C6.95809 46.2408 9.00696 45.596 9.87391 43.9317L16.4337 31.3389Z" fill="#00C9FF"/>
<path d="M7.14612 34.446L11.6544 25.8424C12.6845 24.6498 13.8549 23.8945 15.2427 23.8911L24.1218 24.6007L20.9932 30.7203L15.3809 30.4984C11.5987 30.5132 9.3627 32.4672 7.14612 34.4454V34.446Z" fill="url(#paint1_linear_36_235)"/>
<path d="M30.2248 25.1579L30.1482 25.119C28.4672 24.2657 26.4143 24.9398 25.563 26.6247L20.0926 37.451C19.2413 39.1359 19.9139 41.1935 21.5948 42.0468L21.6715 42.0857C23.3525 42.939 25.4053 42.2649 26.2566 40.58L31.727 29.7537C32.5784 28.0688 31.9058 26.0112 30.2248 25.1579Z" fill="url(#paint2_linear_36_235)"/>
<path d="M23.4326 30.8515C24.7969 30.984 25.8209 31.3163 26.6168 31.8766C27.1544 32.2553 27.6033 32.3326 28.2402 34.1938C28.8958 36.1108 28.2811 36.7915 28.259 36.8332C28.2368 36.8749 25.7001 41.6264 25.7001 41.6264C25.0002 42.5707 23.6681 43.0355 21.8703 42.3138C20.4187 41.473 19.1719 39.9589 19.6859 38.1758L23.4319 30.8508L23.4326 30.8515Z" fill="#00C9FF"/>
<path d="M25.6047 9.98856C28.3566 9.98856 30.5875 7.75255 30.5875 4.99428C30.5875 2.23602 28.3566 0 25.6047 0C22.8528 0 20.6219 2.23602 20.6219 4.99428C20.6219 7.75255 22.8528 9.98856 25.6047 9.98856Z" fill="url(#paint3_linear_36_235)"/>
<defs>
<linearGradient id="paint0_linear_36_235" x1="-4.31817" y1="20.1775" x2="22.087" y2="16.0815" gradientUnits="userSpaceOnUse">
<stop stop-color="#00C9FF"/>
<stop offset="1" stop-color="#92FE9D"/>
</linearGradient>
<linearGradient id="paint1_linear_36_235" x1="-1.37258" y1="29.1686" x2="22.7508" y2="29.1686" gradientUnits="userSpaceOnUse">
<stop stop-color="#00C9FF"/>
<stop offset="1" stop-color="#92FE9D"/>
</linearGradient>
<linearGradient id="paint2_linear_36_235" x1="21.1544" y1="46.8617" x2="29.2457" y2="24.4131" gradientUnits="userSpaceOnUse">
<stop stop-color="#00C9FF"/>
<stop offset="1" stop-color="#92FE9D"/>
</linearGradient>
<linearGradient id="paint3_linear_36_235" x1="13.3535" y1="2.04345" x2="32.9103" y2="6.73137" gradientUnits="userSpaceOnUse">
<stop stop-color="#00C9FF"/>
<stop offset="1" stop-color="#92FE9D"/>
</linearGradient>
</defs>
</svg>
