<svg width="24" height="24" viewBox="0 0 24 24" fill="none" xmlns="http://www.w3.org/2000/svg">
<path d="M4.24988 0.300049C1.89994 0.300049 0 2.20017 0 4.5503V19.4498C0 21.7999 1.89994 23.7001 4.24988 23.7001H19.7501C22.1001 23.7001 24 21.7999 24 19.4498V4.5503C24 2.20017 22.1001 0.300049 19.7501 0.300049H4.24988ZM8.60006 6.25017C9.42 6.25017 10.1001 6.34992 10.6599 6.55992C11.162 6.73051 11.6197 7.01073 12 7.38024C12.3222 7.70352 12.5712 8.09222 12.7301 8.52005C12.8801 8.94005 12.9598 9.36999 12.9598 9.81999C12.9598 10.68 12.7598 11.39 12.3598 11.95C11.9601 12.5099 11.4002 12.93 10.7501 13.17C10.0701 13.4202 9.32006 13.51 8.50012 13.51C8.26013 13.51 8.09981 13.51 7.99988 13.5001C7.89994 13.4901 7.75988 13.4901 7.56994 13.4901V16.7001C7.57987 16.7701 7.53 16.8302 7.46006 16.8402H5.52C5.44012 16.8402 5.40037 16.7999 5.40037 16.7099V6.42005C5.40037 6.35011 5.43037 6.3098 5.50031 6.3098C5.67037 6.3098 5.83031 6.3098 6.06019 6.30005C6.30019 6.28992 6.55013 6.2903 6.82013 6.28017C7.09013 6.27024 7.38019 6.27005 7.69012 6.26011C8.00025 6.24999 8.30006 6.25017 8.60006 6.25017ZM8.82319 8.21968C8.77213 8.2187 8.72105 8.21883 8.67 8.22005C8.41013 8.22005 8.18006 8.22024 7.98994 8.23036C7.79006 8.22024 7.65019 8.23017 7.58025 8.24011V11.6001C7.72013 11.6102 7.84987 11.62 7.96988 11.62H8.50012C8.89013 11.62 9.28012 11.56 9.65006 11.44C9.97013 11.35 10.2501 11.1599 10.47 10.9099C10.68 10.6598 10.7801 10.3201 10.7801 9.87999C10.7893 9.56758 10.7096 9.25898 10.5503 8.99011C10.3802 8.73024 10.14 8.52999 9.84994 8.42011C9.52612 8.28886 9.17944 8.22661 8.82319 8.21968ZM17.2101 8.73024C17.6201 8.73024 18.0401 8.75986 18.45 8.81986C18.75 8.8598 19.0399 8.94024 19.3099 9.0503C19.35 9.06024 19.3899 9.09999 19.4098 9.13992C19.4199 9.17986 19.4301 9.21999 19.4301 9.25992V10.89C19.4302 10.9095 19.4257 10.9286 19.417 10.946C19.4084 10.9633 19.3958 10.9784 19.3802 10.99C19.2902 11.01 19.2401 11.01 19.2002 10.99C18.9002 10.83 18.5799 10.7202 18.2398 10.6502C17.8699 10.5702 17.4999 10.5199 17.1201 10.5199C16.92 10.5098 16.7098 10.5402 16.5199 10.59C16.3898 10.62 16.2799 10.6902 16.2099 10.7901C16.1601 10.8702 16.1301 10.9701 16.1301 11.0601C16.1301 11.1501 16.1702 11.2401 16.2302 11.32C16.3202 11.43 16.44 11.5202 16.5699 11.5904C16.8018 11.7102 17.0387 11.8201 17.28 11.9198C17.82 12.0998 18.3399 12.3501 18.8199 12.6501C19.1499 12.8601 19.4199 13.1402 19.6099 13.4802C19.7708 13.7991 19.8499 14.153 19.8401 14.5101C19.8482 14.9828 19.7121 15.4467 19.4498 15.8401C19.1709 16.2392 18.7818 16.5484 18.33 16.7299C17.8399 16.9399 17.2399 17.05 16.5199 17.05C16.0597 17.05 15.6101 17.01 15.1601 16.92C14.8074 16.8591 14.4644 16.7515 14.1401 16.6C14.0702 16.56 14.0199 16.4899 14.0299 16.4099V14.67C14.0299 14.64 14.0398 14.5999 14.0698 14.5801C14.0998 14.56 14.1298 14.5703 14.1598 14.5902C14.545 14.8174 14.9635 14.9828 15.3999 15.0803C15.78 15.1802 16.1801 15.2301 16.5802 15.2301C16.9601 15.2301 17.2301 15.1801 17.4101 15.0901C17.5701 15.0201 17.6799 14.85 17.6799 14.67C17.6799 14.5302 17.6001 14.3999 17.4399 14.2697C17.28 14.1398 16.95 13.99 16.4601 13.8C15.9573 13.623 15.4799 13.3809 15.0399 13.0801C14.7266 12.8568 14.467 12.5664 14.28 12.2301C14.1204 11.9143 14.0414 11.5639 14.0501 11.2101C14.0501 10.7802 14.1699 10.3701 14.3899 10.0002C14.6398 9.60024 15.0101 9.28018 15.4403 9.0803C15.9101 8.8403 16.4998 8.73024 17.2101 8.73024Z" fill="url(#paint0_linear_53_19)"/>
<defs>
<linearGradient id="paint0_linear_53_19" x1="12" y1="0.300049" x2="12" y2="23.7001" gradientUnits="userSpaceOnUse">
<stop stop-color="#00C9FF"/>
<stop offset="1" stop-color="#92FE9D"/>
</linearGradient>
</defs>
</svg>
