<svg width="16" height="20" viewBox="0 0 16 20" fill="none" xmlns="http://www.w3.org/2000/svg">
<path fill-rule="evenodd" clip-rule="evenodd" d="M3.85681 0H6.85681C9.07881 0 12.6138 1.108 13.8058 4.684C14.3508 6.32 14.1278 7.731 13.9018 9.165C13.8818 9.285 13.8628 9.40567 13.8448 9.527C13.6278 10.941 13.4148 12.605 13.7198 15H14.8568C15.122 15 15.3764 15.1054 15.5639 15.2929C15.7515 15.4804 15.8568 15.7348 15.8568 16V19C15.8568 19.2652 15.7515 19.5196 15.5639 19.7071C15.3764 19.8946 15.122 20 14.8568 20H2.85681C2.59159 20 2.33724 19.8946 2.1497 19.7071C1.96217 19.5196 1.85681 19.2652 1.85681 19V16C1.85681 15.7348 1.96217 15.4804 2.1497 15.2929C2.33724 15.1054 2.59159 15 2.85681 15H3.96281C4.19481 13.856 4.86281 12.282 6.52681 10.644C6.70881 10.464 6.81681 10.257 6.86181 10.052C5.80501 10.7129 4.70026 11.2939 3.55681 11.79C3.28341 11.9086 2.98059 11.9418 2.68798 11.8854C2.39536 11.8291 2.12658 11.6857 1.91681 11.474L0.439809 9.997C0.194448 9.75185 0.0416226 9.42926 0.00734543 9.08411C-0.0269318 8.73897 0.0594574 8.39262 0.251809 8.104L3.70281 2.928L2.96281 1.448C2.88641 1.29554 2.85027 1.12608 2.85782 0.955719C2.86537 0.785358 2.91637 0.619758 3.00595 0.474657C3.09554 0.329556 3.22074 0.209775 3.36966 0.126698C3.51859 0.0436198 3.68628 5.72227e-06 3.85681 0ZM5.85681 7C6.12203 7 6.37638 6.89464 6.56392 6.70711C6.75145 6.51957 6.85681 6.26522 6.85681 6C6.85681 5.73478 6.75145 5.48043 6.56392 5.29289C6.37638 5.10536 6.12203 5 5.85681 5C5.59159 5 5.33724 5.10536 5.1497 5.29289C4.96217 5.48043 4.85681 5.73478 4.85681 6C4.85681 6.26522 4.96217 6.51957 5.1497 6.70711C5.33724 6.89464 5.59159 7 5.85681 7Z" fill="url(#paint0_linear_18_8)"/>
<defs>
<linearGradient id="paint0_linear_18_8" x1="7.9284" y1="0" x2="7.9284" y2="20" gradientUnits="userSpaceOnUse">
<stop stop-color="#00C9FF"/>
<stop offset="1" stop-color="#92FE9D"/>
</linearGradient>
</defs>
</svg>
