<svg width="21" height="22" viewBox="0 0 21 22" fill="none" xmlns="http://www.w3.org/2000/svg">
<path d="M12 15.3401C12 15.7379 11.842 16.1194 11.5607 16.4007C11.2794 16.6821 10.8978 16.8401 10.5 16.8401C10.1022 16.8401 9.72064 16.6821 9.43934 16.4007C9.15804 16.1194 9 15.7379 9 15.3401C9 14.9423 9.15804 14.5607 9.43934 14.2794C9.72064 13.9981 10.1022 13.8401 10.5 13.8401C10.8978 13.8401 11.2794 13.9981 11.5607 14.2794C11.842 14.5607 12 14.9423 12 15.3401Z" fill="url(#paint0_linear_18_24)"/>
<path d="M12.847 0L16.027 4.456L18.124 3.741L20.038 9.34H21V21.34H0V9.34H0.51V9.33L1.158 9.336L12.847 0ZM7.897 9.34H17.925L16.888 6.307L15.366 6.794L7.897 9.34ZM6.339 7.757L14.05 5.13L12.446 2.88L6.339 7.757ZM4 11.34H2V13.34C2.53043 13.34 3.03914 13.1293 3.41421 12.7542C3.78929 12.3791 4 11.8704 4 11.34ZM14 15.34C14 14.8804 13.9095 14.4252 13.7336 14.0006C13.5577 13.576 13.2999 13.1901 12.9749 12.8651C12.6499 12.5401 12.264 12.2823 11.8394 12.1064C11.4148 11.9305 10.9596 11.84 10.5 11.84C10.0404 11.84 9.58525 11.9305 9.16061 12.1064C8.73597 12.2823 8.35013 12.5401 8.02513 12.8651C7.70012 13.1901 7.44231 13.576 7.26642 14.0006C7.09053 14.4252 7 14.8804 7 15.34C7 16.2683 7.36875 17.1585 8.02513 17.8149C8.6815 18.4713 9.57174 18.84 10.5 18.84C11.4283 18.84 12.3185 18.4713 12.9749 17.8149C13.6313 17.1585 14 16.2683 14 15.34ZM19 19.34V17.34C18.4696 17.34 17.9609 17.5507 17.5858 17.9258C17.2107 18.3009 17 18.8096 17 19.34H19ZM17 11.34C17 11.8704 17.2107 12.3791 17.5858 12.7542C17.9609 13.1293 18.4696 13.34 19 13.34V11.34H17ZM2 19.34H4C4 18.8096 3.78929 18.3009 3.41421 17.9258C3.03914 17.5507 2.53043 17.34 2 17.34V19.34Z" fill="url(#paint1_linear_18_24)"/>
<defs>
<linearGradient id="paint0_linear_18_24" x1="10.5" y1="13.8401" x2="10.5" y2="16.8401" gradientUnits="userSpaceOnUse">
<stop stop-color="#00C9FF"/>
<stop offset="1" stop-color="#92FE9D"/>
</linearGradient>
<linearGradient id="paint1_linear_18_24" x1="10.5" y1="0" x2="10.5" y2="21.34" gradientUnits="userSpaceOnUse">
<stop stop-color="#00C9FF"/>
<stop offset="1" stop-color="#92FE9D"/>
</linearGradient>
</defs>
</svg>
