<svg width="28" height="24" viewBox="0 0 28 24" fill="none" xmlns="http://www.w3.org/2000/svg">
<path d="M3.90462 23.174H24.0951C26.5326 23.174 27.7751 21.955 27.7751 19.541V7.27155C27.7751 4.85755 26.5326 3.65055 24.0951 3.65055H21.3531C20.4391 3.65055 20.1581 3.46305 19.6306 2.87705L18.6811 1.82205C18.1071 1.17805 17.5096 0.82605 16.2906 0.82605H11.6266C10.4196 0.82605 9.82162 1.17805 9.23612 1.82205L8.28662 2.87705C7.77112 3.45105 7.47812 3.65055 6.56412 3.65055H3.90412C1.46662 3.65055 0.224121 4.85755 0.224121 7.27155V19.541C0.224121 21.955 1.46712 23.174 3.90462 23.174ZM3.93912 21.2871C2.77912 21.2871 2.11112 20.666 2.11112 19.4471V7.37705C2.11112 6.15805 2.77912 5.53705 3.93912 5.53705H7.03262C8.08762 5.53705 8.65012 5.33805 9.23612 4.68205L10.1616 3.65055C10.8296 2.90055 11.1696 2.71305 12.2126 2.71305H15.7046C16.7476 2.71305 17.0876 2.90055 17.7556 3.65055L18.6811 4.68155C19.2671 5.33805 19.8296 5.53705 20.8846 5.53705H24.0601C25.2201 5.53705 25.8886 6.15805 25.8886 7.37705V19.4471C25.8886 20.666 25.2206 21.2871 24.0601 21.2871H3.93912ZM13.9941 19.424C14.836 19.4264 15.67 19.2622 16.4481 18.9407C17.2262 18.6193 17.933 18.147 18.5278 17.5512C19.1225 16.9553 19.5934 16.2477 19.9134 15.469C20.2334 14.6903 20.3961 13.8559 20.3921 13.014C20.3921 9.45105 17.5561 6.60405 13.9936 6.60405C10.4546 6.60405 7.60712 9.45105 7.60712 13.014C7.60712 16.576 10.4546 19.424 13.9936 19.424M22.4191 10.154C23.2161 10.154 23.8721 9.51005 23.8721 8.71305C23.8721 8.32769 23.719 7.95811 23.4465 7.68562C23.1741 7.41313 22.8045 7.26005 22.4191 7.26005C22.0338 7.26005 21.6642 7.41313 21.3917 7.68562C21.1192 7.95811 20.9661 8.32769 20.9661 8.71305C20.9661 9.51005 21.6221 10.154 22.4191 10.154ZM13.9941 17.643C11.4511 17.643 9.37712 15.5805 9.37712 13.014C9.37712 10.4475 11.4396 8.38555 13.9941 8.38555C14.6022 8.38483 15.2044 8.50405 15.7663 8.73639C16.3282 8.96873 16.8388 9.30963 17.2688 9.73956C17.6987 10.1695 18.0397 10.68 18.2721 11.2419C18.5045 11.8038 18.6238 12.406 18.6231 13.014C18.6238 13.6221 18.5046 14.2244 18.2722 14.7863C18.0399 15.3483 17.6989 15.8589 17.2689 16.2889C16.8389 16.7188 16.3284 17.0598 15.7664 17.2922C15.2045 17.5245 14.6022 17.6438 13.9941 17.643Z" fill="url(#paint0_linear_53_16)"/>
<defs>
<linearGradient id="paint0_linear_53_16" x1="13.9996" y1="0.82605" x2="13.9996" y2="23.174" gradientUnits="userSpaceOnUse">
<stop stop-color="#00C9FF"/>
<stop offset="1" stop-color="#92FE9D"/>
</linearGradient>
</defs>
</svg>
