<svg width="36" height="25" viewBox="0 0 36 25" fill="none" xmlns="http://www.w3.org/2000/svg">
<path d="M33.6871 1.73036L32.6434 1.8532C30.3014 2.13392 28.8021 1.8675 27.6452 1.54062C26.489 1.21293 25.6982 0.728968 24.5689 0.660408C23.3643 0.588043 21.3905 0.740622 19.3014 2.25651C18.172 1.64057 17.1615 1.40199 16.2023 1.40089C15.2547 1.39973 14.385 1.57903 13.3796 1.72363C13.3699 1.72662 13.3658 1.74452 13.3577 1.74893C11.918 1.9529 10.5137 2.29903 8.88109 1.70988L8.19436 1.47189L0.637675 10.1937L16.192 23.6759C17.1255 24.4007 18.2793 24.319 19.1836 24.0354C20.0864 23.7519 20.8658 23.2729 21.4406 22.8222C22.9079 21.6761 26.8458 18.1287 26.8458 18.1287L26.9376 18.0754L27.0041 17.9987C27.456 17.4244 27.635 16.7593 27.7281 16.0798L31.0098 14.1471L34.3645 13.2137L35.2808 12.9805L35.1641 12.0319L33.8318 2.74894L33.6871 1.73036ZM31.794 4.01924L32.847 11.4083L30.2897 12.0925L30.1467 12.1043L30.0102 12.209L27.371 13.7611C27.123 13.2674 26.8225 12.8112 26.3677 12.4456L26.3163 12.4011L21.1442 7.96224L20.3283 7.255L17.5883 10.4174C16.7033 11.208 15.9105 11.1238 15.0824 10.8362C14.807 10.7418 14.8206 10.675 14.6087 10.5585L18.7176 5.81603C21.205 2.6747 23.0365 2.73747 24.4364 2.82342C24.8238 2.84626 25.684 3.23033 27.0519 3.61715C28.1962 3.93881 29.801 4.12802 31.794 4.01924ZM17.5578 3.96051C17.394 4.14294 17.223 4.22331 17.0645 4.42603L11.4078 10.955L12.2237 11.6622C12.2237 11.6622 13.1052 12.4092 14.3659 12.8488C15.6266 13.2885 17.514 13.3955 19.0434 12.036L20.546 10.3017L24.9536 14.0778L24.9789 14.0998C25.3545 14.3903 25.5996 14.818 25.6602 15.2891C25.7208 15.7601 25.5921 16.236 25.3023 16.6122C25.2877 16.6224 24.9878 16.8927 24.9201 16.9511L21.5796 14.0557L20.1654 15.6879L23.3019 18.4065C22.6688 18.9624 22.2467 19.2897 21.6323 19.8174L18.7512 17.3201L17.337 18.9524L19.9636 21.229C19.5251 21.5403 19.0425 21.7843 18.5319 21.953C17.9945 22.1231 17.684 22.094 17.5042 21.9552L3.68374 9.97597L8.965 3.8804C10.8957 4.32498 12.5929 4.02834 13.6524 3.88064C14.7512 3.72707 15.5442 3.57698 16.1904 3.57978C16.6123 3.58254 17.0943 3.79307 17.5578 3.96051Z" fill="url(#paint0_linear_36_419)"/>
<defs>
<linearGradient id="paint0_linear_36_419" x1="29.5821" y1="-1.82778" x2="11.2151" y2="19.3621" gradientUnits="userSpaceOnUse">
<stop stop-color="#00C9FF"/>
<stop offset="1" stop-color="#92FE9D"/>
</linearGradient>
</defs>
</svg>
