<svg width="29" height="29" viewBox="0 0 29 29" fill="none" xmlns="http://www.w3.org/2000/svg">
<path d="M14.1667 0C6.34242 0 0 6.34242 0 14.1667C0 21.9909 6.34242 28.3333 14.1667 28.3333C21.9909 28.3333 28.3333 21.9909 28.3333 14.1667C28.3333 6.34242 21.9909 0 14.1667 0ZM8.84567 3.36175L13.107 5.91175V9.0185L9.15308 11.8915L6.25742 10.8899L5.42583 5.88342C6.40729 4.8468 7.56526 3.99295 8.84567 3.36175ZM2.29642 16.2052L5.593 12.9087L8.483 13.9074L10.0158 18.6292L8.64167 20.8604L3.97658 20.5856C3.13476 19.2497 2.56387 17.7614 2.29642 16.2052ZM12.0842 26.0284L10.4068 22.049L11.7711 19.8291H16.5481L17.8401 22.0688L16.3668 26.0072C14.9517 26.2671 13.5017 26.2743 12.0842 26.0284ZM23.9303 21.216L19.6463 20.9468L18.3175 18.6462L19.8574 13.9074L22.7092 12.9214L25.9845 16.4914C25.6486 18.196 24.9479 19.8078 23.9303 21.216ZM22.9103 5.88767L22.0759 10.8927L19.1859 11.8915L15.232 9.0185V5.91033L19.4848 3.36033C20.7677 3.99266 21.9277 4.84848 22.9103 5.88767Z" fill="url(#paint0_linear_53_13)"/>
<defs>
<linearGradient id="paint0_linear_53_13" x1="14.1667" y1="0" x2="14.1667" y2="28.3333" gradientUnits="userSpaceOnUse">
<stop stop-color="#00C9FF"/>
<stop offset="1" stop-color="#92FE9D"/>
</linearGradient>
</defs>
</svg>
